<svg width="20" height="13" viewBox="0 0 20 13" fill="none" xmlns="http://www.w3.org/2000/svg">
    <mask id="mask0_2997_50250" style="mask-type:luminance" maskUnits="userSpaceOnUse" x="0" y="0" width="20" height="13">
        <path d="M20 12.5625L0 12.5625L-1.04907e-06 0.562502L20 0.5625L20 12.5625Z" fill="white"/>
    </mask>
    <g mask="url(#mask0_2997_50250)">
        <g clip-path="url(#clip0_2997_50250)">
            <path d="M10.0043 -1.47969C7.78135 -1.47969 5.9793 0.322367 5.9793 2.54531C5.9793 4.76826 7.78135 6.57031 10.0043 6.57031C12.2272 6.57031 14.0293 4.76826 14.0293 2.54531C14.0293 0.322367 12.2272 -1.47969 10.0043 -1.47969Z" fill="url(#paint0_linear_2997_50250)"/>
            <path fill-rule="evenodd" clip-rule="evenodd" d="M10.0041 6.43125C12.1477 6.43125 13.8854 4.69356 13.8854 2.55C13.8854 0.406445 12.1477 -1.33125 10.0041 -1.33125C7.86055 -1.33125 6.12285 0.406446 6.12285 2.55C6.12285 4.69356 7.86055 6.43125 10.0041 6.43125ZM14.1729 2.55C14.1729 4.85234 12.3064 6.71875 10.0041 6.71875C7.70176 6.71875 5.83535 4.85234 5.83535 2.55C5.83535 0.247664 7.70176 -1.61875 10.0041 -1.61875C12.3064 -1.61875 14.1729 0.247663 14.1729 2.55Z" fill="#F8AF18"/>
            <path fill-rule="evenodd" clip-rule="evenodd" d="M3.49852 9.05712C3.27397 8.83257 3.27397 8.4685 3.49852 8.24395L5.18232 6.56015C5.40687 6.3356 5.77094 6.3356 5.99549 6.56015C6.22005 6.7847 6.22005 7.14877 5.99549 7.37332L4.3117 9.05712C4.08714 9.28167 3.72308 9.28167 3.49852 9.05712ZM10.005 11.7534C9.68741 11.754 9.4295 11.4971 9.42891 11.1795L9.42449 8.79744C9.4239 8.47988 9.68086 8.22196 9.99842 8.22137C10.316 8.22078 10.5739 8.47774 10.5745 8.79531L10.5789 11.1774C10.5795 11.4949 10.3225 11.7528 10.005 11.7534ZM0.802202 2.55174C0.802202 2.23417 1.05964 1.97674 1.3772 1.97674L3.75485 1.97674C4.07241 1.97674 4.32985 2.23417 4.32985 2.55174C4.32985 2.8693 4.07241 3.12674 3.75485 3.12674L1.3772 3.12674C1.05964 3.12674 0.802202 2.8693 0.802202 2.55174ZM16.5137 9.0527C16.2892 9.27725 15.9251 9.27725 15.7005 9.0527L14.0123 7.36448C13.7878 7.13993 13.7878 6.77586 14.0123 6.55131C14.2369 6.32676 14.6009 6.32676 14.8255 6.55131L16.5137 8.23952C16.7383 8.46408 16.7383 8.82815 16.5137 9.0527ZM5.99549 -1.46551C5.77094 -1.24096 5.40687 -1.24096 5.18232 -1.46551L3.50294 -3.14489C3.27839 -3.36945 3.27839 -3.73352 3.50294 -3.95807C3.72749 -4.18262 4.09156 -4.18262 4.31611 -3.95807L5.99549 -2.27869C6.22005 -2.05414 6.22005 -1.69007 5.99549 -1.46551ZM15.6691 2.55173C15.6691 2.23417 15.9266 1.97673 16.2441 1.97673L18.6306 1.97673C18.9482 1.97673 19.2056 2.23417 19.2056 2.55173C19.2056 2.8693 18.9482 3.12673 18.6306 3.12673L16.2441 3.12673C15.9266 3.12673 15.6691 2.8693 15.6691 2.55173ZM10.0039 -3.11348C9.68634 -3.11348 9.4289 -3.37092 9.4289 -3.68848L9.4289 -6.07497C9.4289 -6.39253 9.68634 -6.64997 10.0039 -6.64997C10.3215 -6.64997 10.5789 -6.39253 10.5789 -6.07497L10.5789 -3.68848C10.5789 -3.37092 10.3215 -3.11348 10.0039 -3.11348ZM14.0167 -1.4611C13.7922 -1.68565 13.7922 -2.04972 14.0167 -2.27427L15.6961 -3.95365C15.9207 -4.1782 16.2847 -4.1782 16.5093 -3.95365C16.7338 -3.7291 16.7338 -3.36503 16.5093 -3.14048L14.8299 -1.4611C14.6054 -1.23654 14.2413 -1.23654 14.0167 -1.4611Z" fill="#FBBF24"/>
        </g>
    </g>
    <defs>
        <linearGradient id="paint0_linear_2997_50250" x1="12.0168" y1="6.03281" x2="7.9918" y2="-0.942187" gradientUnits="userSpaceOnUse">
            <stop stop-color="#FBBF24"/>
            <stop offset="0.5" stop-color="#FBBF24"/>
            <stop offset="1" stop-color="#F59E0B"/>
        </linearGradient>
        <clipPath id="clip0_2997_50250">
            <rect width="18.4" height="18.4" fill="white" transform="translate(19.2041 11.75) rotate(180)"/>
        </clipPath>
    </defs>
</svg>
