<svg width="18" height="18" viewBox="0 0 18 18" fill="none" xmlns="http://www.w3.org/2000/svg">
    <path fill-rule="evenodd" clip-rule="evenodd"
          d="M5.25 3C5.05109 3 4.86032 3.07902 4.71967 3.21967C4.57902 3.36032 4.5 3.55109 4.5 3.75V15H9C9.41421 15 9.75 15.3358 9.75 15.75C9.75 16.1642 9.41421 16.5 9 16.5H2.25C1.83579 16.5 1.5 16.1642 1.5 15.75C1.5 15.3358 1.83579 15 2.25 15H3V3.75C3 3.15326 3.23705 2.58097 3.65901 2.15901C4.08097 1.73705 4.65326 1.5 5.25 1.5H12.75C13.3467 1.5 13.919 1.73705 14.341 2.15901C14.7629 2.58097 15 3.15326 15 3.75V9C15 9.41421 14.6642 9.75 14.25 9.75C13.8358 9.75 13.5 9.41421 13.5 9V3.75C13.5 3.55109 13.421 3.36032 13.2803 3.21967C13.1397 3.07902 12.9489 3 12.75 3H5.25ZM6 6C6 5.58579 6.33579 5.25 6.75 5.25H7.5C7.91421 5.25 8.25 5.58579 8.25 6C8.25 6.41421 7.91421 6.75 7.5 6.75H6.75C6.33579 6.75 6 6.41421 6 6ZM9.75 6C9.75 5.58579 10.0858 5.25 10.5 5.25H11.25C11.6642 5.25 12 5.58579 12 6C12 6.41421 11.6642 6.75 11.25 6.75H10.5C10.0858 6.75 9.75 6.41421 9.75 6ZM6 9C6 8.58579 6.33579 8.25 6.75 8.25H7.5C7.91421 8.25 8.25 8.58579 8.25 9C8.25 9.41421 7.91421 9.75 7.5 9.75H6.75C6.33579 9.75 6 9.41421 6 9ZM9.75 9C9.75 8.58579 10.0858 8.25 10.5 8.25H11.25C11.6642 8.25 12 8.58579 12 9C12 9.41421 11.6642 9.75 11.25 9.75H10.5C10.0858 9.75 9.75 9.41421 9.75 9ZM13.5 10.125C13.9142 10.125 14.25 10.4608 14.25 10.875V11.3778C14.5095 11.4695 14.7516 11.6085 14.9632 11.7896L15.399 11.538C15.7577 11.3309 16.2164 11.4538 16.4235 11.8125C16.6306 12.1712 16.5077 12.6299 16.149 12.837L15.7129 13.0888C15.7379 13.2232 15.7507 13.3605 15.7507 13.4991C15.7508 13.6376 15.738 13.7754 15.7128 13.9109L16.1495 14.1629C16.5083 14.3699 16.6314 14.8285 16.4244 15.1873C16.2174 15.5461 15.7587 15.6691 15.4 15.4621L14.9629 15.21C14.7835 15.3634 14.5808 15.4878 14.3621 15.5785C14.3252 15.5938 14.2879 15.6081 14.2503 15.6214L14.25 16.1255C14.2497 16.5397 13.9137 16.8753 13.4995 16.875C13.0853 16.8747 12.7497 16.5387 12.75 16.1245L12.7503 15.6213C12.7131 15.6082 12.6762 15.594 12.6397 15.5789C12.4209 15.4883 12.218 15.3639 12.0385 15.2105L11.6023 15.4621C11.2435 15.6691 10.7849 15.5461 10.5779 15.1873C10.3709 14.8285 10.4939 14.3699 10.8527 14.1629L11.288 13.9117C11.2628 13.7763 11.25 13.6386 11.25 13.5002C11.25 13.361 11.2628 13.2232 11.2879 13.0882L10.8527 12.8371C10.4939 12.6301 10.3709 12.1715 10.5779 11.8127C10.7849 11.4539 11.2435 11.3309 11.6023 11.5379L12.038 11.7892C12.2493 11.6085 12.4909 11.4697 12.75 11.378V10.875C12.75 10.4608 13.0858 10.125 13.5 10.125ZM12.834 13.1546C12.8403 13.1448 12.8463 13.1349 12.8521 13.1248C12.8579 13.1149 12.8633 13.1049 12.8685 13.0949C12.8974 13.0498 12.9312 13.0076 12.9696 12.9692C13.1047 12.834 13.286 12.7557 13.4764 12.7496C13.4842 12.7499 13.4921 12.75 13.5 12.75C13.508 12.75 13.5161 12.7499 13.524 12.7496C13.7144 12.7556 13.8957 12.8338 14.0308 12.9689C14.0743 13.0123 14.1119 13.0605 14.143 13.1123C14.1454 13.1165 14.1478 13.1208 14.1502 13.125C14.1526 13.1291 14.155 13.1331 14.1574 13.1372C14.2181 13.2471 14.2507 13.3716 14.2507 13.4994C14.2508 13.598 14.2314 13.6956 14.1937 13.7866C14.156 13.8777 14.1008 13.9604 14.0311 14.0301C13.9614 14.0998 13.8787 14.1551 13.7877 14.1928C13.6967 14.2305 13.5991 14.25 13.5006 14.25C13.402 14.25 13.3044 14.2306 13.2134 14.193C13.1223 14.1553 13.0396 14.1 12.9699 14.0304C12.9306 13.9911 12.8959 13.9476 12.8663 13.9009C12.8618 13.8923 12.8571 13.8837 12.8521 13.8752C12.847 13.8663 12.8417 13.8575 12.8362 13.8489C12.8256 13.8287 12.8159 13.8081 12.8072 13.787C12.7695 13.6959 12.75 13.5984 12.75 13.4998C12.75 13.3785 12.7793 13.2603 12.834 13.1546ZM6 12C6 11.5858 6.33579 11.25 6.75 11.25H7.5C7.91421 11.25 8.25 11.5858 8.25 12C8.25 12.4142 7.91421 12.75 7.5 12.75H6.75C6.33579 12.75 6 12.4142 6 12Z"
          fill="#303030"/>
</svg>
