<svg width="18" height="18" viewBox="0 0 18 18" fill="none" xmlns="http://www.w3.org/2000/svg">
    <path fill-rule="evenodd" clip-rule="evenodd"
          d="M1.71967 1.71967C2.01256 1.42678 2.48744 1.42678 2.78033 1.71967L16.2803 15.2197C16.4948 15.4342 16.559 15.7568 16.4429 16.037C16.3268 16.3173 16.0533 16.5 15.75 16.5H2.25C1.83579 16.5 1.5 16.1642 1.5 15.75C1.5 15.3358 1.83579 15 2.25 15H3V4.06066L1.71967 2.78033C1.42678 2.48744 1.42678 2.01256 1.71967 1.71967ZM4.5 5.56066V15H13.5V14.5607L11.6019 12.6625C11.4969 12.7184 11.3772 12.75 11.25 12.75H10.5C10.0858 12.75 9.75 12.4142 9.75 12C9.75 11.6784 9.95243 11.4041 10.2368 11.2975L8.20252 9.26318C8.09593 9.54757 7.82161 9.75 7.5 9.75H6.75C6.33579 9.75 6 9.41421 6 9C6 8.58579 6.33579 8.25 6.75 8.25H7.18934L4.5 5.56066ZM4.5 2.25C4.5 1.83579 4.83579 1.5 5.25 1.5H12.75C13.3689 1.5 13.9251 1.80191 14.3116 2.18842C14.6981 2.57493 15 3.13108 15 3.75V11.25C15 11.6642 14.6642 12 14.25 12C13.8358 12 13.5 11.6642 13.5 11.25V3.75C13.5 3.61892 13.4269 3.42507 13.2509 3.24908C13.0749 3.07309 12.8811 3 12.75 3H5.25C4.83579 3 4.5 2.66421 4.5 2.25ZM9.75 6C9.75 5.58579 10.0858 5.25 10.5 5.25H11.25C11.6642 5.25 12 5.58579 12 6C12 6.41421 11.6642 6.75 11.25 6.75H10.5C10.0858 6.75 9.75 6.41421 9.75 6ZM6 12C6 11.5858 6.33579 11.25 6.75 11.25H7.5C7.91421 11.25 8.25 11.5858 8.25 12C8.25 12.4142 7.91421 12.75 7.5 12.75H6.75C6.33579 12.75 6 12.4142 6 12Z"
          fill="#303030"/>
</svg>
