<svg width="28" height="28" viewBox="0 0 28 28" fill="none" xmlns="http://www.w3.org/2000/svg">
  <path
    d="M14 15.1667C14.6443 15.1667 15.1667 14.6443 15.1667 14C15.1667 13.3557 14.6443 12.8333 14 12.8333C13.3557 12.8333 12.8333 13.3557 12.8333 14C12.8333 14.6443 13.3557 15.1667 14 15.1667Z"
    stroke="currentColor"
    strokeWidth="2"
    strokeLinecap="round"
    strokeLinejoin="round"
  />
  <path
    d="M14 8.16667C14.6443 8.16667 15.1667 7.64433 15.1667 7C15.1667 6.35567 14.6443 5.83333 14 5.83333C13.3557 5.83333 12.8333 6.35567 12.8333 7C12.8333 7.64433 13.3557 8.16667 14 8.16667Z"
    stroke="currentColor"
    strokeWidth="2"
    strokeLinecap="round"
    strokeLinejoin="round"
  />
  <path
    d="M14 22.1667C14.6443 22.1667 15.1667 21.6443 15.1667 21C15.1667 20.3557 14.6443 19.8333 14 19.8333C13.3557 19.8333 12.8333 20.3557 12.8333 21C12.8333 21.6443 13.3557 22.1667 14 22.1667Z"
    stroke="currentColor"
    strokeWidth="2"
    strokeLinecap="round"
    strokeLinejoin="round"
  />
</svg>
