<svg width="24" height="24" viewBox="0 0 24 24" fill="none" xmlns="http://www.w3.org/2000/svg">
  <path d="M3 6.2C3 5.07989 3 4.51984 3.21799 4.09202C3.40973 3.71569 3.71569 3.40973 4.09202 3.21799C4.51984 3 5.07989 3 6.2 3H8.8C9.92011 3 10.4802 3 10.908 3.21799C11.2843 3.40973 11.5903 3.71569 11.782 4.09202C12 4.51984 12 5.07989 12 6.2V8.8C12 9.92011 12 10.4802 11.782 10.908C11.5903 11.2843 11.2843 11.5903 10.908 11.782C10.4802 12 9.92011 12 8.8 12H6.2C5.07989 12 4.51984 12 4.09202 11.782C3.71569 11.5903 3.40973 11.2843 3.21799 10.908C3 10.4802 3 9.92011 3 8.8V6.2Z" stroke="currentColor" stroke-width="1.5"/>
  <path d="M15 15.2C15 14.0799 15 13.5198 15.218 13.092C15.4097 12.7157 15.7157 12.4097 16.092 12.218C16.5198 12 17.0799 12 18.2 12H20.8C21.9201 12 22.4802 12 22.908 12.218C23.2843 12.4097 23.5903 12.7157 23.782 13.092C24 13.5198 24 14.0799 24 15.2V17.8C24 18.9201 24 19.4802 23.782 19.908C23.5903 20.2843 23.2843 20.5903 22.908 20.782C22.4802 21 21.9201 21 20.8 21H18.2C17.0799 21 16.5198 21 16.092 20.782C15.7157 20.5903 15.4097 20.2843 15.218 19.908C15 19.4802 15 18.9201 15 17.8V15.2Z" stroke="currentColor" stroke-width="1.5"/>
  <path d="M3 15.2C3 14.0799 3 13.5198 3.21799 13.092C3.40973 12.7157 3.71569 12.4097 4.09202 12.218C4.51984 12 5.07989 12 6.2 12H8.8C9.92011 12 10.4802 12 10.908 12.218C11.2843 12.4097 11.5903 12.7157 11.782 13.092C12 13.5198 12 14.0799 12 15.2V17.8C12 18.9201 12 19.4802 11.782 19.908C11.5903 20.2843 11.2843 20.5903 10.908 20.782C10.4802 21 9.92011 21 8.8 21H6.2C5.07989 21 4.51984 21 4.09202 20.782C3.71569 20.5903 3.40973 20.2843 3.21799 19.908C3 19.4802 3 18.9201 3 17.8V15.2Z" stroke="currentColor" stroke-width="1.5"/>
  <path d="M15 6.2C15 5.07989 15 4.51984 15.218 4.09202C15.4097 3.71569 15.7157 3.40973 16.092 3.21799C16.5198 3 17.0799 3 18.2 3H20.8C21.9201 3 22.4802 3 22.908 3.21799C23.2843 3.40973 23.5903 3.71569 23.782 4.09202C24 4.51984 24 5.07989 24 6.2V8.8C24 9.92011 24 10.4802 23.782 10.908C23.5903 11.2843 23.2843 11.5903 22.908 11.782C22.4802 12 21.9201 12 20.8 12H18.2C17.0799 12 16.5198 12 16.092 11.782C15.7157 11.5903 15.4097 11.2843 15.218 10.908C15 10.4802 15 9.92011 15 8.8V6.2Z" stroke="currentColor" stroke-width="1.5"/>
</svg>
