<svg width="56" height="56" viewBox="0 0 56 56" fill="none" xmlns="http://www.w3.org/2000/svg">
<path d="M24.25 2.74219C26.5705 1.40252 29.4295 1.40252 31.75 2.74219L47.999 12.124C50.3193 13.4638 51.749 15.9398 51.749 18.6191V37.3809C51.749 40.0602 50.3193 42.5362 47.999 43.876L31.75 53.2578C29.4295 54.5975 26.5705 54.5975 24.25 53.2578L8.00098 43.876C5.68071 42.5362 4.25098 40.0602 4.25098 37.3809V18.6191C4.25098 15.9398 5.68071 13.4638 8.00098 12.124L24.25 2.74219Z" fill="white" stroke="#DEE5EF"/>
<path d="M35.75 28.1822V23.8186C35.75 22.1253 35.75 21.2787 35.482 20.6025C35.0512 19.5155 34.1402 18.658 32.9852 18.2526C32.2668 18.0004 31.3673 18.0004 29.5682 18.0004C26.4198 18.0004 24.8456 18.0004 23.5884 18.4417C21.5671 19.1513 19.9728 20.6518 19.2189 22.5541C18.75 23.7374 18.75 25.219 18.75 28.1822V30.7276C18.75 33.797 18.75 35.3317 19.5977 36.3975C19.8406 36.7028 20.1286 36.9739 20.4531 37.2025C21.498 37.9387 22.9671 37.9956 25.75 38" stroke="#0049DA" stroke-width="1.5" stroke-linecap="round" stroke-linejoin="round"/>
<path d="M18.75 28C18.75 26.1591 20.2424 24.6667 22.0833 24.6667C22.7491 24.6667 23.534 24.7833 24.1814 24.6099C24.7565 24.4558 25.2058 24.0065 25.3599 23.4314C25.5333 22.784 25.4167 21.9991 25.4167 21.3333C25.4167 19.4924 26.9091 18 28.75 18" stroke="#0049DA" stroke-width="1.5" stroke-linecap="round" stroke-linejoin="round"/>
<path opacity="0.4" d="M27.75 33L28.7728 33.5944C29.2874 31.7277 31.2614 30.6199 33.1818 31.1201C34.1649 31.3761 34.9434 32.0039 35.4001 32.806M36.75 36L35.7274 35.4056C35.2128 37.2723 33.2388 38.3801 31.3184 37.8799C30.3581 37.6298 29.5931 37.0251 29.1324 36.2496" stroke="#0049DA" stroke-width="1.5" stroke-linecap="round" stroke-linejoin="round"/>
</svg>
