<svg width="56" height="56" viewBox="0 0 56 56" fill="none" xmlns="http://www.w3.org/2000/svg">
<path d="M24.25 2.74219C26.5705 1.40252 29.4295 1.40252 31.75 2.74219L47.999 12.124C50.3193 13.4638 51.749 15.9398 51.749 18.6191V37.3809C51.749 40.0602 50.3193 42.5362 47.999 43.876L31.75 53.2578C29.4295 54.5975 26.5705 54.5975 24.25 53.2578L8.00098 43.876C5.68071 42.5362 4.25098 40.0602 4.25098 37.3809V18.6191C4.25098 15.9398 5.68071 13.4638 8.00098 12.124L24.25 2.74219Z" fill="white" stroke="#DEE5EF"/>
<path opacity="0.4" d="M19.75 24.2308V21.4615C19.75 19.5498 21.317 18 23.25 18C25.183 18 26.75 19.5498 26.75 21.4615L26.75 25.2692C26.75 26.2251 25.9665 27 25 27C24.0335 27 23.25 26.2251 23.25 25.2692L23.25 21.4615" stroke="#0049DA" stroke-width="1.5" stroke-linecap="round"/>
<path d="M28.75 18H29.0227C32.2839 18 33.9145 18 35.0469 18.7978C35.3714 19.0264 35.6594 19.2975 35.9023 19.6029C36.75 20.6687 36.75 22.2034 36.75 25.2727V27.8182C36.75 30.7814 36.75 32.2629 36.2811 33.4462C35.5272 35.3486 33.9329 36.8491 31.9116 37.5586C30.6544 38 29.0802 38 25.9318 38C24.1327 38 23.2332 38 22.5148 37.7478C21.3598 37.3424 20.4488 36.4849 20.018 35.3979C19.75 34.7217 19.75 33.8751 19.75 32.1818V28" stroke="#0049DA" stroke-width="1.5" stroke-linecap="round" stroke-linejoin="round"/>
<path d="M36.75 28C36.75 29.8409 35.2576 31.3333 33.4167 31.3333C32.7509 31.3333 31.966 31.2167 31.3186 31.3901C30.7435 31.5442 30.2942 31.9935 30.1401 32.5686C29.9667 33.216 30.0833 34.0009 30.0833 34.6667C30.0833 36.5076 28.5909 38 26.75 38" stroke="#0049DA" stroke-width="1.5" stroke-linecap="round" stroke-linejoin="round"/>
</svg>
