<svg width="28" height="28" viewBox="0 0 28 28" fill="none" xmlns="http://www.w3.org/2000/svg">
  <path d="M24.5 21.5C24.5 22.1443 24.1629 22.7613 23.5611 23.2111C22.9593 23.6609 22.1462 23.9167 21.3 23.9167H6.7C5.85382 23.9167 5.04067 23.6609 4.43888 23.2111C3.8371 22.7613 3.5 22.1443 3.5 21.5V6.5C3.5 5.85567 3.8371 5.23869 4.43888 4.78891C5.04067 4.33913 5.85382 4.08333 6.7 4.08333H10.9667C11.3898 4.08333 11.7963 4.21114 12.1222 4.43603C12.4482 4.66092 12.6747 4.96993 12.7667 5.32L13.3 7.58333H21.3C22.1462 7.58333 22.9593 7.83913 23.5611 8.28891C24.1629 8.73869 24.5 9.35567 24.5 10V21.5Z" stroke="currentColor" stroke-width="2" stroke-linecap="round" stroke-linejoin="round"/>
</svg>
