<svg width="20" height="20" viewBox="0 0 20 20" fill="none" xmlns="http://www.w3.org/2000/svg">
    <path d="M10.0006 14.3769C12.4164 14.3769 14.3748 12.4185 14.3748 10.0027C14.3748 7.58694 12.4164 5.62854 10.0006 5.62854C7.58484 5.62854 5.62645 7.58694 5.62645 10.0027C5.62645 12.4185 7.58484 14.3769 10.0006 14.3769Z" fill="url(#paint0_linear_3013_17534)"/>
    <path fill-rule="evenodd" clip-rule="evenodd" d="M10.0008 5.78392C7.67133 5.78392 5.78288 7.67237 5.78288 10.0019C5.78288 12.3314 7.67133 14.2199 10.0008 14.2199C12.3304 14.2199 14.2188 12.3314 14.2188 10.0019C14.2188 7.67237 12.3304 5.78392 10.0008 5.78392ZM5.47044 10.0019C5.47044 7.49981 7.49877 5.47147 10.0008 5.47147C12.5029 5.47147 14.5313 7.49981 14.5313 10.0019C14.5313 12.504 12.5029 14.5323 10.0008 14.5323C7.49877 14.5323 5.47044 12.504 5.47044 10.0019Z" fill="#F8AF18"/>
    <path fill-rule="evenodd" clip-rule="evenodd" d="M17.0698 2.93024C17.3138 3.17427 17.3138 3.56993 17.0698 3.81396L15.2399 5.64384C14.9958 5.88787 14.6002 5.88787 14.3562 5.64384C14.1121 5.3998 14.1121 5.00415 14.3562 4.76012L16.186 2.93024C16.4301 2.68621 16.8257 2.68621 17.0698 2.93024ZM9.99884 1.09903e-06C10.344 -0.000639231 10.6242 0.278611 10.6249 0.623725L10.6297 3.21245C10.6303 3.55756 10.3511 3.83785 10.006 3.83849C9.66085 3.83913 9.38056 3.55988 9.37992 3.21477L9.37512 0.626044C9.37448 0.28093 9.65373 0.000641429 9.99884 1.09903e-06ZM20 10C20 10.3451 19.7202 10.6249 19.3751 10.6249H16.7912C16.4461 10.6249 16.1663 10.3451 16.1663 10C16.1663 9.65489 16.4461 9.37512 16.7912 9.37512H19.3751C19.7202 9.37512 20 9.65489 20 10ZM2.92544 2.93504C3.16947 2.69101 3.56513 2.69101 3.80916 2.93504L5.64384 4.76972C5.88787 5.01376 5.88787 5.40941 5.64384 5.65344C5.39981 5.89748 5.00415 5.89748 4.76012 5.65344L2.92544 3.81876C2.68141 3.57473 2.68141 3.17908 2.92544 2.93504ZM14.3562 14.3658C14.6002 14.1217 14.9958 14.1217 15.2399 14.3658L17.065 16.1908C17.309 16.4349 17.309 16.8305 17.065 17.0746C16.8209 17.3186 16.4253 17.3186 16.1812 17.0746L14.3562 15.2495C14.1121 15.0055 14.1121 14.6098 14.3562 14.3658ZM3.8433 10C3.84329 10.3451 3.56352 10.6249 3.21841 10.6249H0.624884C0.27977 10.6249 1.83213e-07 10.3451 0 10C5.4964e-07 9.65489 0.279771 9.37512 0.624885 9.37512H3.21841C3.56352 9.37512 3.84329 9.65489 3.8433 10ZM10 16.1567C10.3451 16.1567 10.6249 16.4365 10.6249 16.7816V19.3751C10.6249 19.7202 10.3451 20 10 20C9.65489 20 9.37512 19.7202 9.37512 19.3751V16.7816C9.37512 16.4365 9.65489 16.1567 10 16.1567ZM5.63903 14.361C5.88307 14.605 5.88307 15.0007 5.63903 15.2447L3.81396 17.0698C3.56993 17.3138 3.17427 17.3138 2.93024 17.0698C2.68621 16.8257 2.68621 16.4301 2.93024 16.186L4.75531 14.361C4.99935 14.1169 5.395 14.1169 5.63903 14.361Z" fill="#FBBF24"/>
    <defs>
        <linearGradient id="paint0_linear_3013_17534" x1="5" y1="1.3354" x2="15" y2="18.6646" gradientUnits="userSpaceOnUse">
            <stop stop-color="#FBBF24"/>
            <stop offset="0.5" stop-color="#FBBF24"/>
            <stop offset="1" stop-color="#F59E0B"/>
        </linearGradient>
    </defs>
</svg>
