<svg width="18" height="18" viewBox="0 0 18 18" fill="none" xmlns="http://www.w3.org/2000/svg">
    <path d="M8.06241 1.83969C8.58741 1.39719 9.43491 1.39719 9.94491 1.83969L11.1299 2.85219C11.3549 3.03969 11.7824 3.19719 12.0824 3.19719H13.3574C14.1524 3.19719 14.8049 3.84969 14.8049 4.64469V5.91969C14.8049 6.21969 14.9624 6.63969 15.1499 6.86469L16.1624 8.04969C16.6049 8.57469 16.6049 9.42219 16.1624 9.93219L15.1499 11.1172C14.9624 11.3422 14.8049 11.7622 14.8049 12.0622V13.3372C14.8049 14.1322 14.1524 14.7847 13.3574 14.7847H12.0824C11.7824 14.7847 11.3624 14.9422 11.1374 15.1297L9.95241 16.1422C9.42741 16.5847 8.57991 16.5847 8.06991 16.1422L6.88491 15.1297C6.65991 14.9422 6.23241 14.7847 5.93991 14.7847H4.62741C3.83241 14.7847 3.17991 14.1322 3.17991 13.3372V12.0547C3.17991 11.7622 3.02991 11.3347 2.84241 11.1172L1.82991 9.92469C1.39491 9.40719 1.39491 8.56719 1.82991 8.04969L2.84241 6.85719C3.02991 6.63219 3.17991 6.21219 3.17991 5.91969V4.65219C3.17991 3.85719 3.83241 3.20469 4.62741 3.20469H5.92491C6.22491 3.20469 6.64491 3.04719 6.86991 2.85969L8.06241 1.83969Z"
          stroke="#303030" stroke-width="1.125" stroke-linecap="round" stroke-linejoin="round"/>
    <path d="M9 6.09375V9.71625" stroke="#303030" stroke-width="1.125" stroke-linecap="round" stroke-linejoin="round"/>
    <path d="M8.99597 12H9.00271" stroke="#303030" stroke-width="1.5" stroke-linecap="round" stroke-linejoin="round"/>
</svg>
