<svg width="20" height="12" viewBox="0 0 20 12" fill="none" xmlns="http://www.w3.org/2000/svg">
    <mask id="mask0_2050_27488" style="mask-type:luminance" maskUnits="userSpaceOnUse" x="0" y="-1" width="20" height="13">
        <path d="M0 -0.5625H20V11.4375H0V-0.5625Z" fill="white"/>
    </mask>
    <g mask="url(#mask0_2050_27488)">
        <g clip-path="url(#clip0_2050_27488)">
            <path d="M9.9957 13.4719C12.2186 13.4719 14.0207 11.6698 14.0207 9.44687C14.0207 7.22393 12.2186 5.42188 9.9957 5.42188C7.77276 5.42188 5.9707 7.22393 5.9707 9.44687C5.9707 11.6698 7.77276 13.4719 9.9957 13.4719Z" fill="url(#paint0_linear_2050_27488)"/>
            <path fill-rule="evenodd" clip-rule="evenodd" d="M9.9959 5.56875C7.85234 5.56875 6.11465 7.30644 6.11465 9.45C6.11465 11.5936 7.85234 13.3313 9.9959 13.3313C12.1395 13.3313 13.8771 11.5936 13.8771 9.45C13.8771 7.30644 12.1395 5.56875 9.9959 5.56875ZM5.82715 9.45C5.82715 7.14766 7.69356 5.28125 9.9959 5.28125C12.2982 5.28125 14.1646 7.14766 14.1646 9.45C14.1646 11.7523 12.2982 13.6188 9.9959 13.6188C7.69356 13.6188 5.82715 11.7523 5.82715 9.45Z" fill="#F8AF18"/>
            <path fill-rule="evenodd" clip-rule="evenodd" d="M16.5015 2.94288C16.726 3.16743 16.726 3.5315 16.5015 3.75605L14.8177 5.43985C14.5931 5.6644 14.2291 5.6644 14.0045 5.43985C13.78 5.2153 13.78 4.85123 14.0045 4.62668L15.6883 2.94288C15.9129 2.71833 16.2769 2.71833 16.5015 2.94288ZM9.99503 0.246563C10.3126 0.245974 10.5705 0.502932 10.5711 0.820495L10.5755 3.20256C10.5761 3.52012 10.3191 3.77804 10.0016 3.77863C9.68402 3.77922 9.4261 3.52226 9.42551 3.20469L9.42109 0.822629C9.42051 0.505065 9.67746 0.247152 9.99503 0.246563ZM19.1978 9.44826C19.1978 9.76583 18.9404 10.0233 18.6228 10.0233L16.2451 10.0233C15.9276 10.0233 15.6701 9.76583 15.6701 9.44826C15.6701 9.1307 15.9276 8.87326 16.2451 8.87326L18.6228 8.87326C18.9404 8.87326 19.1978 9.1307 19.1978 9.44826ZM3.48629 2.9473C3.71084 2.72275 4.07491 2.72275 4.29946 2.9473L5.98768 4.63552C6.21223 4.86007 6.21223 5.22414 5.98768 5.44869C5.76313 5.67324 5.39906 5.67324 5.17451 5.44869L3.48629 3.76047C3.26174 3.53592 3.26174 3.17185 3.48629 2.9473ZM14.0045 13.4655C14.2291 13.241 14.5931 13.241 14.8177 13.4655L16.4971 15.1449C16.7216 15.3694 16.7216 15.7335 16.4971 15.9581C16.2725 16.1826 15.9084 16.1826 15.6839 15.9581L14.0045 14.2787C13.78 14.0541 13.78 13.6901 14.0045 13.4655ZM4.33088 9.44826C4.33088 9.76583 4.07344 10.0233 3.75588 10.0233L1.36939 10.0233C1.05183 10.0233 0.794391 9.76583 0.794391 9.44826C0.794391 9.1307 1.05183 8.87326 1.36939 8.87326L3.75588 8.87326C4.07344 8.87326 4.33088 9.1307 4.33088 9.44826ZM9.99609 15.1135C10.3137 15.1135 10.5711 15.3709 10.5711 15.6885V18.075C10.5711 18.3925 10.3137 18.65 9.99609 18.65C9.67853 18.65 9.42109 18.3925 9.42109 18.075V15.6885C9.42109 15.3709 9.67853 15.1135 9.99609 15.1135ZM5.98326 13.4611C6.20781 13.6856 6.20781 14.0497 5.98326 14.2743L4.30388 15.9536C4.07933 16.1782 3.71526 16.1782 3.49071 15.9536C3.26616 15.7291 3.26616 15.365 3.49071 15.1405L5.17009 13.4611C5.39464 13.2365 5.75871 13.2365 5.98326 13.4611Z" fill="#FBBF24"/>
        </g>
    </g>
    <defs>
        <linearGradient id="paint0_linear_2050_27488" x1="7.9832" y1="5.95938" x2="12.0082" y2="12.9344" gradientUnits="userSpaceOnUse">
            <stop stop-color="#FBBF24"/>
            <stop offset="0.5" stop-color="#FBBF24"/>
            <stop offset="1" stop-color="#F59E0B"/>
        </linearGradient>
        <clipPath id="clip0_2050_27488">
            <rect width="18.4" height="18.4" fill="white" transform="translate(0.795898 0.25)"/>
        </clipPath>
    </defs>
</svg>
