<svg width="56" height="56" viewBox="0 0 56 56" fill="none" xmlns="http://www.w3.org/2000/svg">
<path d="M24.25 2.74219C26.5705 1.40252 29.4295 1.40252 31.75 2.74219L47.999 12.124C50.3193 13.4638 51.749 15.9398 51.749 18.6191V37.3809C51.749 40.0602 50.3193 42.5362 47.999 43.876L31.75 53.2578C29.4295 54.5975 26.5705 54.5975 24.25 53.2578L8.00098 43.876C5.68071 42.5362 4.25098 40.0602 4.25098 37.3809V18.6191C4.25098 15.9398 5.68071 13.4638 8.00098 12.124L24.25 2.74219Z" fill="white" stroke="#DEE5EF"/>
<path opacity="0.4" d="M22.75 34V31.5M22.75 31.5V30C22.75 29.5286 22.75 29.2929 22.9038 29.1464C23.0575 29 23.305 29 23.8 29H24.5C25.2249 29 25.8125 29.5596 25.8125 30.25C25.8125 30.9404 25.2249 31.5 24.5 31.5H22.75ZM36.75 29H35.4375C34.6125 29 34.2001 29 33.9438 29.2441C33.6875 29.4882 33.6875 29.881 33.6875 30.6667V31.5M33.6875 34V31.5M33.6875 31.5H35.875M31.5 31.5C31.5 32.8807 30.3247 34 28.875 34C28.5479 34 28.3843 34 28.2625 33.933C27.9708 33.7726 28 33.448 28 33.1667V29.8333C28 29.552 27.9708 29.2274 28.2625 29.067C28.3843 29 28.5479 29 28.875 29C30.3247 29 31.5 30.1193 31.5 31.5Z" stroke="#0049DA" stroke-width="1.5" stroke-linecap="round" stroke-linejoin="round"/>
<path d="M30.75 38H26.4773C23.2161 38 21.5855 38 20.4531 37.2022C20.1286 36.9736 19.8406 36.7025 19.5977 36.3971C18.75 35.3313 18.75 33.7966 18.75 30.7273V28.1818C18.75 25.2186 18.75 23.7371 19.2189 22.5538C19.9728 20.6514 21.5671 19.1509 23.5884 18.4414C24.8456 18 26.4198 18 29.5682 18C31.3673 18 32.2668 18 32.9852 18.2522C34.1402 18.6576 35.0512 19.5151 35.482 20.6021C35.75 21.2783 35.75 22.1249 35.75 23.8182V26" stroke="#0049DA" stroke-width="1.5" stroke-linecap="round" stroke-linejoin="round"/>
<path d="M18.75 28C18.75 26.1591 20.2424 24.6667 22.0833 24.6667C22.7491 24.6667 23.534 24.7833 24.1814 24.6099C24.7565 24.4558 25.2058 24.0065 25.3599 23.4314C25.5333 22.784 25.4167 21.9991 25.4167 21.3333C25.4167 19.4924 26.9091 18 28.75 18" stroke="#0049DA" stroke-width="1.5" stroke-linecap="round" stroke-linejoin="round"/>
</svg>
