<svg width="28" height="28" viewBox="0 0 28 28" fill="none" xmlns="http://www.w3.org/2000/svg">
  <path d="M23.3333 3.5H4.66667C4.02233 3.5 3.5 4.02233 3.5 4.66667V23.3333C3.5 23.9777 4.02233 24.5 4.66667 24.5H23.3333C23.9777 24.5 24.5 23.9777 24.5 23.3333V4.66667C24.5 4.02233 23.9777 3.5 23.3333 3.5Z" stroke="currentColor" stroke-width="2" stroke-linecap="round" stroke-linejoin="round"/>
  <path d="M9.91667 11.6667C10.8871 11.6667 11.6667 10.8871 11.6667 9.91667C11.6667 8.94619 10.8871 8.16667 9.91667 8.16667C8.94619 8.16667 8.16667 8.94619 8.16667 9.91667C8.16667 10.8871 8.94619 11.6667 9.91667 11.6667Z" stroke="currentColor" stroke-width="2" stroke-linecap="round" stroke-linejoin="round"/>
  <path d="M24.5 16.3333L18.6667 10.5L4.66667 24.5" stroke="currentColor" stroke-width="2" stroke-linecap="round" stroke-linejoin="round"/>
</svg>
