<svg width="56" height="56" viewBox="0 0 56 56" fill="none" xmlns="http://www.w3.org/2000/svg">
<path d="M24.25 2.74219C26.5705 1.40252 29.4295 1.40252 31.75 2.74219L47.999 12.124C50.3193 13.4638 51.749 15.9398 51.749 18.6191V37.3809C51.749 40.0602 50.3193 42.5362 47.999 43.876L31.75 53.2578C29.4295 54.5975 26.5705 54.5975 24.25 53.2578L8.00098 43.876C5.68071 42.5362 4.25098 40.0602 4.25098 37.3809V18.6191C4.25098 15.9398 5.68071 13.4638 8.00098 12.124L24.25 2.74219Z" fill="white" stroke="#DEE5EF"/>
<circle opacity="0.4" cx="23.25" cy="23.5" r="1.5" stroke="#0049DA" stroke-width="1.5" stroke-linecap="round" stroke-linejoin="round"/>
<path d="M18.25 28C18.25 23.5217 18.25 21.2825 19.6412 19.8912C21.0325 18.5 23.2717 18.5 27.75 18.5C32.2283 18.5 34.4675 18.5 35.8588 19.8912C37.25 21.2825 37.25 23.5217 37.25 28C37.25 32.4783 37.25 34.7175 35.8588 36.1088C34.4675 37.5 32.2283 37.5 27.75 37.5C23.2717 37.5 21.0325 37.5 19.6412 36.1088C18.25 34.7175 18.25 32.4783 18.25 28Z" stroke="#0049DA" stroke-width="1.5"/>
<path d="M20.75 36.9999C25.1225 31.775 30.0241 24.884 37.2475 29.5424" stroke="#0049DA" stroke-width="1.5"/>
</svg>
