<svg width="23" height="23" viewBox="0 0 23 23" fill="none" xmlns="http://www.w3.org/2000/svg">
<path d="M7.41663 9.16667C8.38313 9.16667 9.16663 8.38317 9.16663 7.41667C9.16663 6.45017 8.38313 5.66667 7.41663 5.66667C6.45013 5.66667 5.66663 6.45017 5.66663 7.41667C5.66663 8.38317 6.45013 9.16667 7.41663 9.16667Z" fill="#079455"/>
<path fill-rule="evenodd" clip-rule="evenodd" d="M9.00549 1.73096e-07H13.9945C15.3805 -8.05237e-06 16.4828 -1.45957e-05 17.3716 0.0737977C18.2819 0.149392 19.0575 0.307549 19.7658 0.67552C20.8617 1.24477 21.7552 2.1383 22.3245 3.23415C22.6925 3.94253 22.8506 4.71811 22.9262 5.62839C23 6.5172 23 7.61946 23 9.00544V13.9982C23 14.3333 23 14.6518 22.9989 14.9547C23.0004 14.9874 23.0003 15.0201 22.9986 15.0528C22.9947 15.9581 22.9802 16.7219 22.9262 17.3716C22.8506 18.2819 22.6925 19.0575 22.3245 19.7658C21.7552 20.8617 20.8617 21.7552 19.7658 22.3245C19.0575 22.6925 18.2819 22.8506 17.3716 22.9262C16.4828 23 15.3805 23 13.9946 23H9.00553C7.61955 23 6.5172 23 5.62839 22.9262C4.71811 22.8506 3.94253 22.6925 3.23415 22.3245C2.1383 21.7552 1.24477 20.8617 0.67552 19.7658C0.307549 19.0575 0.149392 18.2819 0.0737977 17.3716C-1.45957e-05 16.4828 -8.05237e-06 15.3805 1.73096e-07 13.9945V9.00549C-8.05237e-06 7.61949 -1.45957e-05 6.51721 0.0737977 5.62839C0.149392 4.71811 0.307549 3.94253 0.67552 3.23415C1.24477 2.1383 2.1383 1.24477 3.23415 0.67552C3.94253 0.307549 4.71811 0.149392 5.62839 0.0737977C6.51721 -1.45957e-05 7.61949 -8.05237e-06 9.00549 1.73096e-07ZM21 9.05V12.5119L18.9739 10.3983C18.1837 9.57404 16.8649 9.57754 16.0791 10.406L10.3845 16.4096L8.33864 13.9359C7.51653 12.9419 5.98234 12.9746 5.20334 14.0028L2.17198 18.0037C2.12736 17.7771 2.09263 17.5154 2.06694 17.2061C2.0008 16.4097 2 15.3905 2 13.95V9.05C2 7.60949 2.0008 6.59025 2.06694 5.79391C2.13208 5.00955 2.25538 4.53142 2.45035 4.1561C2.82985 3.42553 3.42553 2.82985 4.1561 2.45035C4.53142 2.25538 5.00955 2.13208 5.79391 2.06694C6.59025 2.0008 7.60949 2 9.05 2H13.95C15.3905 2 16.4097 2.0008 17.2061 2.06694C17.9905 2.13208 18.4686 2.25538 18.8439 2.45035C19.5745 2.82985 20.1702 3.42553 20.5497 4.1561C20.7446 4.53142 20.8679 5.00955 20.9331 5.79391C20.9992 6.59025 21 7.60949 21 9.05ZM4.1561 20.5497C3.82137 20.3758 3.51496 20.1565 3.24468 19.8997L6.79746 15.2106L8.84334 17.6842C9.60822 18.609 11.0097 18.6567 11.8356 17.7859L17.5301 11.7824L20.9963 15.3981C20.9903 16.1208 20.9745 16.7072 20.9331 17.2061C20.8679 17.9905 20.7446 18.4686 20.5497 18.8439C20.1702 19.5745 19.5745 20.1702 18.8439 20.5497C18.4686 20.7446 17.9905 20.8679 17.2061 20.9331C16.4097 20.9992 15.3905 21 13.95 21H9.05C7.60949 21 6.59025 20.9992 5.79391 20.9331C5.00955 20.8679 4.53142 20.7446 4.1561 20.5497Z" fill="#079455"/>
</svg>
