<svg width="24" height="24" viewBox="0 0 24 24" fill="none" xmlns="http://www.w3.org/2000/svg">
<path d="M8.68402 10.9343L15.3228 7.06567" stroke="currentColor" stroke-width="1.5" stroke-linecap="round" stroke-linejoin="round"/>
<path d="M8.68402 13.0657L15.3228 16.9343" stroke="currentColor" stroke-width="1.5" stroke-linecap="round" stroke-linejoin="round"/>
<path d="M18.5 6C19.8807 6 21 4.88071 21 3.5C21 2.11929 19.8807 1 18.5 1C17.1193 1 16 2.11929 16 3.5C16 4.88071 17.1193 6 18.5 6Z" stroke="currentColor" stroke-width="1.5" stroke-linecap="round" stroke-linejoin="round"/>
<path d="M5.5 15C6.88071 15 8 13.8807 8 12.5C8 11.1193 6.88071 10 5.5 10C4.11929 10 3 11.1193 3 12.5C3 13.8807 4.11929 15 5.5 15Z" stroke="currentColor" stroke-width="1.5" stroke-linecap="round" stroke-linejoin="round"/>
<path d="M18.5 23C19.8807 23 21 21.8807 21 20.5C21 19.1193 19.8807 18 18.5 18C17.1193 18 16 19.1193 16 20.5C16 21.8807 17.1193 23 18.5 23Z" stroke="currentColor" stroke-width="1.5" stroke-linecap="round" stroke-linejoin="round"/>
</svg>
