<svg width="40" height="40" viewBox="0 0 40 40" fill="none" xmlns="http://www.w3.org/2000/svg">
<path d="M8 0.5H32C36.1421 0.5 39.5 3.85786 39.5 8V32C39.5 36.1421 36.1421 39.5 32 39.5H8C3.85786 39.5 0.5 36.1421 0.5 32V8C0.5 3.85786 3.85786 0.5 8 0.5Z" fill="white"/>
<path d="M8 0.5H32C36.1421 0.5 39.5 3.85786 39.5 8V32C39.5 36.1421 36.1421 39.5 32 39.5H8C3.85786 39.5 0.5 36.1421 0.5 32V8C0.5 3.85786 3.85786 0.5 8 0.5Z" stroke="#DEE5EF"/>
<g clip-path="url(#clip0_59_13605)">
<path opacity="0.4" d="M28.3333 15.7503C28.7475 15.7503 29.0833 15.4145 29.0833 15.0003C29.0833 14.5861 28.7475 14.2503 28.3333 14.2503V15.0003V15.7503ZM21.6666 14.2503C21.2524 14.2503 20.9166 14.5861 20.9166 15.0003C20.9166 15.4145 21.2524 15.7503 21.6666 15.7503V15.0003V14.2503ZM25.75 11.667C25.75 11.2528 25.4142 10.917 25 10.917C24.5857 10.917 24.25 11.2528 24.25 11.667H25H25.75ZM24.25 18.3337C24.25 18.7479 24.5857 19.0837 25 19.0837C25.4142 19.0837 25.75 18.7479 25.75 18.3337H25H24.25ZM28.3333 15.0003V14.2503H25V15.0003V15.7503H28.3333V15.0003ZM25 15.0003V14.2503H21.6666V15.0003V15.7503H25V15.0003ZM25 11.667H24.25V15.0003H25H25.75V11.667H25ZM25 15.0003H24.25V18.3337H25H25.75V15.0003H25Z" fill="#091E42"/>
<path d="M19.5833 12.5C15.8513 12.5 13.9854 12.5 12.826 13.6594C11.6666 14.8187 11.6666 16.6847 11.6666 20.4167C11.6666 24.1486 11.6666 26.0146 12.826 27.174C13.9854 28.3333 15.8513 28.3333 19.5833 28.3333C23.3152 28.3333 25.1812 28.3333 26.3406 27.174C27.5 26.0146 27.5 24.1486 27.5 20.4167V20" stroke="#091E42" stroke-width="1.5" stroke-linecap="round"/>
<path d="M11.6666 21.7799C12.1825 21.7049 12.704 21.6679 13.2264 21.6692C15.4363 21.6225 17.5922 22.3111 19.3092 23.6121C20.9016 24.8188 22.0206 26.4794 22.5 28.3337" stroke="#091E42" stroke-width="1.5" stroke-linejoin="round"/>
<path opacity="0.4" d="M27.5 24.0799C26.5205 23.5837 25.5073 23.332 24.4885 23.3331C22.9454 23.327 21.4179 23.8941 20 24.9997" stroke="#091E42" stroke-width="1.5" stroke-linejoin="round"/>
</g>
<defs>
<clipPath id="clip0_59_13605">
<rect width="20" height="20" fill="white" transform="translate(10 10)"/>
</clipPath>
</defs>
</svg>
